<mxfile host="app.diagrams.net" agent="Mozilla/5.0 (Macintosh; Intel Mac OS X 10_15_7) AppleWebKit/537.36 (KHTML, like Gecko) Chrome/134.0.0.0 Safari/537.36" version="26.1.1">
  <diagram name="Page-1" id="B0ZvROsH4oaW4ADWVjdi">
    <mxGraphModel dx="1434" dy="795" grid="1" gridSize="10" guides="1" tooltips="1" connect="1" arrows="1" fold="1" page="1" pageScale="1" pageWidth="827" pageHeight="1169" math="0" shadow="0">
      <root>
        <mxCell id="0" />
        <mxCell id="1" parent="0" />
        <mxCell id="6xfdj-d8gogqRrs55YzL-5" style="edgeStyle=orthogonalEdgeStyle;rounded=0;orthogonalLoop=1;jettySize=auto;html=1;" edge="1" parent="1" source="6xfdj-d8gogqRrs55YzL-3">
          <mxGeometry relative="1" as="geometry">
            <mxPoint x="285" y="220" as="targetPoint" />
          </mxGeometry>
        </mxCell>
        <mxCell id="6xfdj-d8gogqRrs55YzL-3" value="Start" style="ellipse;whiteSpace=wrap;html=1;" vertex="1" parent="1">
          <mxGeometry x="220" y="90" width="130" height="60" as="geometry" />
        </mxCell>
        <mxCell id="6xfdj-d8gogqRrs55YzL-13" value="" style="edgeStyle=orthogonalEdgeStyle;rounded=0;orthogonalLoop=1;jettySize=auto;html=1;" edge="1" parent="1" source="6xfdj-d8gogqRrs55YzL-9">
          <mxGeometry relative="1" as="geometry">
            <mxPoint x="290" y="390" as="targetPoint" />
          </mxGeometry>
        </mxCell>
        <mxCell id="6xfdj-d8gogqRrs55YzL-9" value="Connect to Mysql databse" style="shape=cylinder3;whiteSpace=wrap;html=1;boundedLbl=1;backgroundOutline=1;size=15;" vertex="1" parent="1">
          <mxGeometry x="230" y="220" width="120" height="90" as="geometry" />
        </mxCell>
        <mxCell id="6xfdj-d8gogqRrs55YzL-17" value="" style="edgeStyle=orthogonalEdgeStyle;rounded=0;orthogonalLoop=1;jettySize=auto;html=1;" edge="1" parent="1" source="6xfdj-d8gogqRrs55YzL-14" target="6xfdj-d8gogqRrs55YzL-16">
          <mxGeometry relative="1" as="geometry" />
        </mxCell>
        <mxCell id="6xfdj-d8gogqRrs55YzL-22" value="" style="edgeStyle=orthogonalEdgeStyle;rounded=0;orthogonalLoop=1;jettySize=auto;html=1;" edge="1" parent="1" source="6xfdj-d8gogqRrs55YzL-14" target="6xfdj-d8gogqRrs55YzL-21">
          <mxGeometry relative="1" as="geometry" />
        </mxCell>
        <mxCell id="6xfdj-d8gogqRrs55YzL-23" value="YES" style="edgeLabel;html=1;align=center;verticalAlign=middle;resizable=0;points=[];" vertex="1" connectable="0" parent="6xfdj-d8gogqRrs55YzL-22">
          <mxGeometry y="1" relative="1" as="geometry">
            <mxPoint as="offset" />
          </mxGeometry>
        </mxCell>
        <mxCell id="6xfdj-d8gogqRrs55YzL-14" value="Connection sucessfull" style="rhombus;whiteSpace=wrap;html=1;" vertex="1" parent="1">
          <mxGeometry x="240" y="390" width="100" height="80" as="geometry" />
        </mxCell>
        <mxCell id="6xfdj-d8gogqRrs55YzL-16" value="Error message&quot;Database connection unsuccessful check the credentials&quot;" style="whiteSpace=wrap;html=1;" vertex="1" parent="1">
          <mxGeometry x="500" y="390" width="220" height="80" as="geometry" />
        </mxCell>
        <mxCell id="6xfdj-d8gogqRrs55YzL-18" value="NO" style="text;html=1;align=center;verticalAlign=middle;resizable=0;points=[];autosize=1;strokeColor=none;fillColor=none;" vertex="1" parent="1">
          <mxGeometry x="390" y="398" width="40" height="30" as="geometry" />
        </mxCell>
        <mxCell id="6xfdj-d8gogqRrs55YzL-29" value="" style="edgeStyle=orthogonalEdgeStyle;rounded=0;orthogonalLoop=1;jettySize=auto;html=1;" edge="1" parent="1" source="6xfdj-d8gogqRrs55YzL-21" target="6xfdj-d8gogqRrs55YzL-28">
          <mxGeometry relative="1" as="geometry" />
        </mxCell>
        <mxCell id="6xfdj-d8gogqRrs55YzL-21" value="Create Langchain SQL agent" style="whiteSpace=wrap;html=1;" vertex="1" parent="1">
          <mxGeometry x="230" y="560" width="120" height="60" as="geometry" />
        </mxCell>
        <mxCell id="6xfdj-d8gogqRrs55YzL-31" value="" style="edgeStyle=orthogonalEdgeStyle;rounded=0;orthogonalLoop=1;jettySize=auto;html=1;" edge="1" parent="1" source="6xfdj-d8gogqRrs55YzL-28" target="6xfdj-d8gogqRrs55YzL-30">
          <mxGeometry relative="1" as="geometry" />
        </mxCell>
        <mxCell id="6xfdj-d8gogqRrs55YzL-28" value="Convert user question into SQL query and fetch result from DB" style="whiteSpace=wrap;html=1;" vertex="1" parent="1">
          <mxGeometry x="230" y="700" width="120" height="60" as="geometry" />
        </mxCell>
        <mxCell id="6xfdj-d8gogqRrs55YzL-33" value="" style="edgeStyle=orthogonalEdgeStyle;rounded=0;orthogonalLoop=1;jettySize=auto;html=1;" edge="1" parent="1" source="6xfdj-d8gogqRrs55YzL-30" target="6xfdj-d8gogqRrs55YzL-32">
          <mxGeometry relative="1" as="geometry" />
        </mxCell>
        <mxCell id="6xfdj-d8gogqRrs55YzL-30" value="Display the result to user" style="whiteSpace=wrap;html=1;" vertex="1" parent="1">
          <mxGeometry x="230" y="840" width="120" height="60" as="geometry" />
        </mxCell>
        <mxCell id="6xfdj-d8gogqRrs55YzL-35" value="" style="edgeStyle=orthogonalEdgeStyle;rounded=0;orthogonalLoop=1;jettySize=auto;html=1;entryX=0;entryY=0.5;entryDx=0;entryDy=0;" edge="1" parent="1" source="6xfdj-d8gogqRrs55YzL-32" target="6xfdj-d8gogqRrs55YzL-43">
          <mxGeometry relative="1" as="geometry">
            <mxPoint x="390" y="1010" as="targetPoint" />
          </mxGeometry>
        </mxCell>
        <mxCell id="6xfdj-d8gogqRrs55YzL-39" value="" style="edgeStyle=orthogonalEdgeStyle;rounded=0;orthogonalLoop=1;jettySize=auto;html=1;" edge="1" parent="1" source="6xfdj-d8gogqRrs55YzL-32" target="6xfdj-d8gogqRrs55YzL-38">
          <mxGeometry relative="1" as="geometry">
            <Array as="points">
              <mxPoint x="300" y="1120" />
              <mxPoint x="300" y="1120" />
            </Array>
          </mxGeometry>
        </mxCell>
        <mxCell id="6xfdj-d8gogqRrs55YzL-32" value="Need to generate email?" style="rhombus;whiteSpace=wrap;html=1;" vertex="1" parent="1">
          <mxGeometry x="240" y="970" width="120" height="80" as="geometry" />
        </mxCell>
        <mxCell id="6xfdj-d8gogqRrs55YzL-42" value="" style="edgeStyle=orthogonalEdgeStyle;rounded=0;orthogonalLoop=1;jettySize=auto;html=1;" edge="1" parent="1" source="6xfdj-d8gogqRrs55YzL-38">
          <mxGeometry relative="1" as="geometry">
            <mxPoint x="290" y="1280" as="targetPoint" />
          </mxGeometry>
        </mxCell>
        <mxCell id="6xfdj-d8gogqRrs55YzL-38" value="Generate Email template based on user selection" style="whiteSpace=wrap;html=1;" vertex="1" parent="1">
          <mxGeometry x="230" y="1140" width="120" height="60" as="geometry" />
        </mxCell>
        <mxCell id="6xfdj-d8gogqRrs55YzL-40" value="YES" style="text;html=1;align=center;verticalAlign=middle;resizable=0;points=[];autosize=1;strokeColor=none;fillColor=none;" vertex="1" parent="1">
          <mxGeometry x="300" y="1088" width="50" height="30" as="geometry" />
        </mxCell>
        <mxCell id="6xfdj-d8gogqRrs55YzL-43" value="END" style="ellipse;whiteSpace=wrap;html=1;" vertex="1" parent="1">
          <mxGeometry x="450" y="970" width="120" height="80" as="geometry" />
        </mxCell>
        <mxCell id="6xfdj-d8gogqRrs55YzL-44" value="END" style="ellipse;whiteSpace=wrap;html=1;" vertex="1" parent="1">
          <mxGeometry x="230" y="1280" width="120" height="80" as="geometry" />
        </mxCell>
        <mxCell id="6xfdj-d8gogqRrs55YzL-46" value="No" style="text;html=1;align=center;verticalAlign=middle;resizable=0;points=[];autosize=1;strokeColor=none;fillColor=none;" vertex="1" parent="1">
          <mxGeometry x="370" y="988" width="40" height="30" as="geometry" />
        </mxCell>
      </root>
    </mxGraphModel>
  </diagram>
</mxfile>
